<svg xmlns="http://www.w3.org/2000/svg" viewBox="0 0 300 300"><title>kerr-goldPrimary</title><path d="M278.86,1.76H21.33A19.94,19.94,0,0,0,1.42,21.67V279.25a19.94,19.94,0,0,0,19.92,19.92H278.86a19.94,19.94,0,0,0,19.92-19.92V21.67A19.94,19.94,0,0,0,278.86,1.76ZM102.71,129.84l-14,23.11,14,23.11v74.12H66.23l-11.8,0a5.08,5.08,0,0,1-5.08-5.08V222.46a5.09,5.09,0,0,1,5.08-5.09h11.8V88.47H54.43a5.08,5.08,0,0,1-5.08-5.08V60.78a5.09,5.09,0,0,1,5.08-5.08H90.85l.4,0h11.46Zm128.69,115a5.09,5.09,0,0,1-5.09,5.09H165.93l-59-97.23,59-97.23h23.56l.4,0h36.42a5.09,5.09,0,0,1,5.09,5.08V83.18a5.09,5.09,0,0,1-5.09,5.09h-4.08l-37,0-38.52,64.42,38.52,64.4h37l4.08,0a5.08,5.08,0,0,1,5.09,5.08Zm12.46-74.58H221.73l-11.06-17.62L221.73,135h22.12l11.06,17.63Z" style="fill:#984"/></svg>