<?xml version="1.0" encoding="utf-8"?>
<!-- Generator: Adobe Illustrator 21.0.0, SVG Export Plug-In . SVG Version: 6.00 Build 0)  -->
<svg version="1.1" id="Layer_1" xmlns="http://www.w3.org/2000/svg" xmlns:xlink="http://www.w3.org/1999/xlink" x="0px" y="0px"
	 viewBox="0 0 384 32.3" style="enable-background:new 0 0 384 32.3;" xml:space="preserve">
<style type="text/css">
	.st0{fill:#FFFFFF;}
</style>
<g>
	<path class="st0" d="M21.6,31.1C21.6,31.1,21.6,31.1,21.6,31.1l2.2,0c0.4,0,0.8-0.3,0.8-0.8v-3.4c0-0.4-0.3-0.8-0.8-0.8h-1.7v0
		h-0.5l-5.9-9.8l5.9-9.8h0.5v0h1.7c0.4,0,0.8-0.3,0.8-0.8V2.4c0-0.4-0.3-0.8-0.8-0.8h-2.2c0,0,0,0,0,0h-3l-9,14.8l9,14.8H21.6z"/>
	<path class="st0" d="M7.6,1.6H2.1c-0.4,0-0.8,0.3-0.8,0.8v3.4c0,0.4,0.3,0.8,0.8,0.8H4v19.6H2.1c-0.4,0-0.8,0.3-0.8,0.8v3.4
		c0,0.4,0.3,0.8,0.8,0.8H4v0h5.4V19.9l-2.1-3.5l2.1-3.5V1.6L7.6,1.6C7.6,1.6,7.6,1.6,7.6,1.6z"/>
	<path class="st0" d="M44.6,1.6H27.4c-0.7,0-0.9,0.1-0.9,0.9v3.1c0,0.8,0.2,0.9,0.9,0.9h2.2v19.7h-2.2c-0.7,0-0.9,0.1-0.9,0.9v3.1
		c0,0.8,0.2,0.9,0.9,0.9h17.3c0.7,0,0.9-0.1,0.9-0.9v-6.8c0-0.8-0.1-0.9-0.9-0.9h-2.8c-0.8,0-0.9,0.2-0.9,0.9v2.9h-5.5v-7.2h7.3
		c0.7,0,0.9-0.1,0.9-0.9v-2.8c0-0.8-0.1-0.9-0.9-0.9h-7.3V6.5h5.5v2.3c0,0.8,0.2,0.9,0.9,0.9h2.8c0.7,0,0.9-0.1,0.9-0.9V2.3
		C45.5,1.7,45.3,1.6,44.6,1.6z"/>
	<path class="st0" d="M71.5,27c0-0.8-0.2-0.9-0.9-0.9h-2l-4.5-8.2c1.6-0.8,4.9-2.4,4.9-8c0-8.1-6.7-8.3-10-8.3H48.9
		c-0.7,0-0.9,0.1-0.9,0.9v3.1c0,0.8,0.2,0.9,0.9,0.9h2.2v19.7h-2.2c-0.7,0-0.9,0.1-0.9,0.9v3.1c0,0.8,0.2,0.9,0.9,0.9h10
		c0.7,0,0.9-0.1,0.9-0.9v-3.1c0-0.8-0.2-0.9-0.9-0.9h-2v-7.3H59l5.8,11.6c0.3,0.6,0.3,0.6,1,0.6h4.8c0.7,0,0.9-0.1,0.9-0.9V27z
		 M58,14.4h-1.1V6.5h1.6c2.2,0,4.7-0.3,4.7,3.5C63.2,14,60.8,14.4,58,14.4z"/>
	<path class="st0" d="M95.4,26.1h-2l-4.5-8.2c1.6-0.8,4.9-2.4,4.9-8c0-8.1-6.7-8.3-10-8.3H73.7c-0.7,0-0.9,0.1-0.9,0.9v3.1
		c0,0.8,0.2,0.9,0.9,0.9h2.2v19.7h-2.2c-0.7,0-0.9,0.1-0.9,0.9v3.1c0,0.8,0.2,0.9,0.9,0.9h10c0.7,0,0.9-0.1,0.9-0.9v-3.1
		c0-0.8-0.2-0.9-0.9-0.9h-2v-7.3h2.1l5.8,11.6c0.3,0.6,0.3,0.6,1,0.6h4.8c0.7,0,0.9-0.1,0.9-0.9V27C96.3,26.3,96.1,26.1,95.4,26.1z
		 M82.8,14.4h-1.1V6.5h1.6c2.2,0,4.7-0.3,4.7,3.5C88,14,85.6,14.4,82.8,14.4z"/>
	<path class="st0" d="M128.5,22.4h-3.3c-0.6,0-0.8,0.2-0.8,0.7V27c-0.8,0.2-1.6,0.2-2.4,0.2c-5.3,0-6.3-4.3-6.3-11.6
		c0-7.3,1.8-9.8,5.9-9.8c0.8,0,1.6,0.1,2.4,0.4v3.5c0,0.6,0.1,0.7,0.8,0.7h3.3c0.6,0,0.8-0.1,0.8-0.7V4c0-1.6-4.3-2.8-7.5-2.8
		c-8,0-11.9,5.7-11.9,15.5c0,10.2,3.9,15.1,12,15.1c3.8,0,7.7-1.2,7.7-2.5v-6.2C129.2,22.6,129.1,22.4,128.5,22.4z"/>
	<path class="st0" d="M143.6,1.2c-6.8,0-11,5-11,15.3c0,10.3,4.2,15.3,11,15.3c6.9,0,11-5,11-15.3C154.6,6.2,150.4,1.2,143.6,1.2z
		 M143.6,27.3c-3.3,0-4.7-4.2-4.7-10.8c0-6.6,1.4-10.9,4.7-10.9c3.3,0,4.7,4.2,4.7,10.9C148.3,23.2,146.9,27.3,143.6,27.3z"/>
	<path class="st0" d="M182.2,1.9h-9.6c-0.8,0-0.9,0.1-0.9,0.9v2.3c0,0.8,0.2,0.9,0.9,0.9h2.2v10.3c0,1.4,0.2,4.2,0.2,5.5h-0.1
		c-0.5-1.7-1.4-3.9-2.7-6.2l-7.4-13.2c-0.3-0.5-0.4-0.6-1-0.6H157c-0.8,0-0.9,0.1-0.9,0.9v2.3c0,0.8,0.2,0.9,0.9,0.9h2.3v21H157
		c-0.8,0-0.9,0.1-0.9,0.9v2.3c0,0.8,0.2,0.9,0.9,0.9h9.6c0.8,0,0.9-0.1,0.9-0.9v-2.3c0-0.8-0.2-0.9-0.9-0.9h-2.2V14.8
		c0-2-0.2-3.3-0.2-4.7h0.1c0.8,2.4,1.3,3.4,2.6,5.8l8.2,14.5c0.3,0.5,0.4,0.6,1,0.6h2.9c0.8,0,0.9-0.1,0.9-0.9V6h2.3
		c0.8,0,0.9-0.1,0.9-0.9V2.8C183.1,2,182.9,1.9,182.2,1.9z"/>
	<path class="st0" d="M205.3,1.9h-19.2c-0.6,0-0.8,0.1-0.8,0.7v8c0,0.6,0.1,0.7,0.8,0.7h2.6c0.6,0,0.8-0.1,0.8-0.7V6.5h3.2V27h-2.9
		c-0.8,0-0.9,0.1-0.9,0.9v2.3c0,0.8,0.2,0.9,0.9,0.9h11.8c0.8,0,0.9-0.1,0.9-0.9v-2.3c0-0.8-0.2-0.9-0.9-0.9h-2.9V6.5h3.2v4.1
		c0,0.6,0.1,0.7,0.8,0.7h2.6c0.6,0,0.8-0.1,0.8-0.7v-8C206,2,205.8,1.9,205.3,1.9z"/>
	<path class="st0" d="M232.9,27h-2l-5.4-9c1.6-0.8,5.1-2.4,5.1-7.9c0-8-6.9-8.2-10.3-8.2h-10.4c-0.8,0-0.9,0.1-0.9,0.9v2.3
		c0,0.8,0.2,0.9,0.9,0.9h2.3v21h-2.3c-0.8,0-0.9,0.1-0.9,0.9v2.3c0,0.8,0.2,0.9,0.9,0.9h10.3c0.8,0,0.9-0.1,0.9-0.9v-2.3
		c0-0.8-0.2-0.9-0.9-0.9h-2.1v-8h2.1l6,11.5c0.3,0.6,0.3,0.6,1,0.6h5.7c0.8,0,0.9-0.1,0.9-0.9v-2.3C233.9,27.1,233.7,27,232.9,27z
		 M219.3,14.6h-1.2V6.4h1.6c2.3,0,4.8,0.1,4.8,3.8C224.6,14.1,222.2,14.6,219.3,14.6z"/>
	<path class="st0" d="M260.7,27h-1.5l-7.6-24.4c-0.2-0.6-0.3-0.7-1-0.7H246c-0.8,0-0.8,0.1-1,0.7L237.2,27h-1.3
		c-0.8,0-0.9,0.1-0.9,0.9v2.3c0,0.8,0.2,0.9,0.9,0.9h8.8c0.8,0,0.9-0.1,0.9-0.9v-2.3c0-0.8-0.2-0.9-0.9-0.9h-1.5l1-3.7h7.6l1,3.7
		h-1.4c-0.8,0-0.9,0.1-0.9,0.9v2.3c0,0.8,0.2,0.9,0.9,0.9h9.2c0.8,0,0.9-0.1,0.9-0.9v-2.3C261.6,27.1,261.4,27,260.7,27z
		 M244.9,19.4l2-7.3c0.4-1.7,0.8-4.2,1-6h0.1c0.2,1.8,0.5,4.3,1,6l1.8,7.3H244.9z"/>
	<path class="st0" d="M281.5,22.4h-3.3c-0.6,0-0.8,0.2-0.8,0.7V27c-0.8,0.2-1.6,0.2-2.4,0.2c-5.3,0-6.3-4.3-6.3-11.6
		c0-7.3,1.8-9.8,5.9-9.8c0.8,0,1.6,0.1,2.3,0.4v3.5c0,0.6,0.1,0.7,0.8,0.7h3.3c0.6,0,0.8-0.1,0.8-0.7V4c0-1.6-4.3-2.8-7.5-2.8
		c-8,0-11.9,5.7-11.9,15.5c0,10.2,3.9,15.1,12,15.1c3.8,0,7.7-1.2,7.7-2.5v-6.2C282.2,22.6,282.1,22.4,281.5,22.4z"/>
	<path class="st0" d="M305.5,1.9h-19.2c-0.6,0-0.8,0.1-0.8,0.7v8c0,0.6,0.1,0.7,0.8,0.7h2.6c0.6,0,0.8-0.1,0.8-0.7V6.5h3.2V27h-2.9
		c-0.8,0-0.9,0.1-0.9,0.9v2.3c0,0.8,0.2,0.9,0.9,0.9h11.8c0.8,0,0.9-0.1,0.9-0.9v-2.3c0-0.8-0.2-0.9-0.9-0.9h-2.9V6.5h3.2v4.1
		c0,0.6,0.1,0.7,0.8,0.7h2.6c0.6,0,0.8-0.1,0.8-0.7v-8C306.2,2,306,1.9,305.5,1.9z"/>
	<path class="st0" d="M320,1.2c-6.8,0-11,5-11,15.3c0,10.3,4.2,15.3,11,15.3c6.9,0,11-5,11-15.3C331.1,6.2,326.9,1.2,320,1.2z
		 M320,27.3c-3.3,0-4.7-4.2-4.7-10.8c0-6.6,1.4-10.9,4.7-10.9c3.3,0,4.7,4.2,4.7,10.9C324.8,23.2,323.4,27.3,320,27.3z"/>
	<path class="st0" d="M356.8,27h-2l-5.4-9c1.6-0.8,5.1-2.4,5.1-7.9c0-8-6.9-8.2-10.3-8.2h-10.4c-0.8,0-0.9,0.1-0.9,0.9v2.3
		c0,0.8,0.2,0.9,0.9,0.9h2.3v21h-2.3c-0.8,0-0.9,0.1-0.9,0.9v2.3c0,0.8,0.2,0.9,0.9,0.9h10.3c0.8,0,0.9-0.1,0.9-0.9v-2.3
		c0-0.8-0.2-0.9-0.9-0.9H342v-8h2.1l6,11.5c0.3,0.6,0.3,0.6,1,0.6h5.7c0.8,0,0.9-0.1,0.9-0.9v-2.3C357.7,27.1,357.6,27,356.8,27z
		 M343.1,14.6H342V6.4h1.6c2.3,0,4.8,0.1,4.8,3.8C348.5,14.1,346,14.6,343.1,14.6z"/>
	<path class="st0" d="M375.5,15.7c-3.9-2.8-9.1-3.4-9.1-6.6c0-2.6,2.1-3.3,4.2-3.3c1.5,0,2.5,0.4,3,0.6v3.4c0,0.6,0.1,0.7,0.8,0.7
		h3.3c0.6,0,0.8-0.1,0.8-0.7V4c0-1.7-4.8-2.8-7.9-2.8c-5.1,0-9.8,2.6-9.8,8.7c0,3.5,1.5,5.2,3.9,6.6c4.5,2.6,9,3,9,6.8
		c0,2.6-1.5,3.9-4,3.9c-1.9,0-3.5-0.6-4.2-0.9v-3.9c0-0.6-0.1-0.7-0.8-0.7h-3.3c-0.6,0-0.8,0.2-0.8,0.7v6.4c0,1.9,5.8,2.9,9.1,2.9
		c5.6,0,9.6-3.6,9.6-9C379.3,19.6,377.8,17.3,375.5,15.7z"/>
</g>
</svg>
