<?xml version="1.0" encoding="UTF-8" standalone="no"?>
<svg width="391px" height="31px" viewBox="0 0 391 31" version="1.1" xmlns="http://www.w3.org/2000/svg" xmlns:xlink="http://www.w3.org/1999/xlink">
    <!-- Generator: Sketch 41.2 (35397) - http://www.bohemiancoding.com/sketch -->
    <title>kerrWordLogoKern</title>
    <desc>Created with Sketch.</desc>
    <defs></defs>
    <g id="Page-1" stroke="none" stroke-width="1" fill="none" fill-rule="evenodd">
        <g id="kerrWordLogoKern" fill="#FFFFFF">
            <g id="Group">
                <path d="M20.6,30.1 L20.6,30.1 L22.8,30.1 C23.2,30.1 23.6,29.8 23.6,29.3 L23.6,25.9 C23.6,25.5 23.3,25.1 22.8,25.1 L21.1,25.1 L21.1,25.1 L20.6,25.1 L14.7,15.3 L20.6,5.5 L21.1,5.5 L21.1,5.5 L22.8,5.5 C23.2,5.5 23.6,5.2 23.6,4.7 L23.6,1.4 C23.6,1 23.3,0.6 22.8,0.6 L20.6,0.6 L20.6,0.6 L17.6,0.6 L8.6,15.4 L17.6,30.2 L20.6,30.2 L20.6,30.1 Z" id="Shape"></path>
                <path d="M6.6,0.6 L1.1,0.6 C0.7,0.6 0.3,0.9 0.3,1.4 L0.3,4.8 C0.3,5.2 0.6,5.6 1.1,5.6 L3,5.6 L3,25.2 L1.1,25.2 C0.7,25.2 0.3,25.5 0.3,26 L0.3,29.4 C0.3,29.8 0.6,30.2 1.1,30.2 L3,30.2 L3,30.2 L8.4,30.2 L8.4,18.9 L6.3,15.4 L8.4,11.9 L8.4,0.6 L6.6,0.6 L6.6,0.6 Z" id="Shape"></path>
                <path d="M45.6,0.6 L28.4,0.6 C27.7,0.6 27.5,0.7 27.5,1.5 L27.5,4.6 C27.5,5.4 27.7,5.5 28.4,5.5 L30.6,5.5 L30.6,25.2 L28.4,25.2 C27.7,25.2 27.5,25.3 27.5,26.1 L27.5,29.2 C27.5,30 27.7,30.1 28.4,30.1 L45.7,30.1 C46.4,30.1 46.6,30 46.6,29.2 L46.6,22.4 C46.6,21.6 46.5,21.5 45.7,21.5 L42.9,21.5 C42.1,21.5 42,21.7 42,22.4 L42,25.3 L36.5,25.3 L36.5,18.1 L43.8,18.1 C44.5,18.1 44.7,18 44.7,17.2 L44.7,14.4 C44.7,13.6 44.6,13.5 43.8,13.5 L36.5,13.5 L36.5,5.5 L42,5.5 L42,7.8 C42,8.6 42.2,8.7 42.9,8.7 L45.7,8.7 C46.4,8.7 46.6,8.6 46.6,7.8 L46.6,1.3 C46.5,0.7 46.3,0.6 45.6,0.6 Z" id="Shape"></path>
                <path d="M75.5,26 C75.5,25.2 75.3,25.1 74.6,25.1 L72.6,25.1 L68.1,16.9 C69.7,16.1 73,14.5 73,8.9 C73,0.8 66.3,0.6 63,0.6 L52.9,0.6 C52.2,0.6 52,0.7 52,1.5 L52,4.6 C52,5.4 52.2,5.5 52.9,5.5 L55.1,5.5 L55.1,25.2 L52.9,25.2 C52.2,25.2 52,25.3 52,26.1 L52,29.2 C52,30 52.2,30.1 52.9,30.1 L62.9,30.1 C63.6,30.1 63.8,30 63.8,29.2 L63.8,26.1 C63.8,25.3 63.6,25.2 62.9,25.2 L60.9,25.2 L60.9,17.9 L63,17.9 L68.8,29.5 C69.1,30.1 69.1,30.1 69.8,30.1 L74.6,30.1 C75.3,30.1 75.5,30 75.5,29.2 L75.5,26 Z M62,13.4 L60.9,13.4 L60.9,5.5 L62.5,5.5 C64.7,5.5 67.2,5.2 67.2,9 C67.2,13 64.8,13.4 62,13.4 Z" id="Shape"></path>
                <path d="M101.4,25.1 L99.4,25.1 L94.9,16.9 C96.5,16.1 99.8,14.5 99.8,8.9 C99.8,0.8 93.1,0.6 89.8,0.6 L79.7,0.6 C79,0.6 78.8,0.7 78.8,1.5 L78.8,4.6 C78.8,5.4 79,5.5 79.7,5.5 L81.9,5.5 L81.9,25.2 L79.7,25.2 C79,25.2 78.8,25.3 78.8,26.1 L78.8,29.2 C78.8,30 79,30.1 79.7,30.1 L89.7,30.1 C90.4,30.1 90.6,30 90.6,29.2 L90.6,26.1 C90.6,25.3 90.4,25.2 89.7,25.2 L87.7,25.2 L87.7,17.9 L89.8,17.9 L95.6,29.5 C95.9,30.1 95.9,30.1 96.6,30.1 L101.4,30.1 C102.1,30.1 102.3,30 102.3,29.2 L102.3,26 C102.3,25.3 102.1,25.1 101.4,25.1 Z M88.8,13.4 L87.7,13.4 L87.7,5.5 L89.3,5.5 C91.5,5.5 94,5.2 94,9 C94,13 91.6,13.4 88.8,13.4 Z" id="Shape"></path>
                <path d="M133.5,21.4 L130.2,21.4 C129.6,21.4 129.4,21.6 129.4,22.1 L129.4,26 C128.6,26.2 127.8,26.2 127,26.2 C121.7,26.2 120.7,21.9 120.7,14.6 C120.7,7.3 122.5,4.8 126.6,4.8 C127.4,4.8 128.2,4.9 129,5.2 L129,8.7 C129,9.3 129.1,9.4 129.8,9.4 L133.1,9.4 C133.7,9.4 133.9,9.3 133.9,8.7 L133.9,3 C133.9,1.4 129.6,0.2 126.4,0.2 C118.4,0.2 114.5,5.9 114.5,15.7 C114.5,25.9 118.4,30.8 126.5,30.8 C130.3,30.8 134.2,29.6 134.2,28.3 L134.2,22.1 C134.2,21.6 134.1,21.4 133.5,21.4 Z" id="Shape"></path>
                <path d="M149.6,0.2 C142.8,0.2 138.6,5.2 138.6,15.5 C138.6,25.8 142.8,30.8 149.6,30.8 C156.5,30.8 160.6,25.8 160.6,15.5 C160.6,5.2 156.4,0.2 149.6,0.2 Z M149.6,26.3 C146.3,26.3 144.9,22.1 144.9,15.5 C144.9,8.9 146.3,4.6 149.6,4.6 C152.9,4.6 154.3,8.8 154.3,15.5 C154.3,22.2 152.9,26.3 149.6,26.3 Z" id="Shape"></path>
                <path d="M190.2,0.9 L180.6,0.9 C179.8,0.9 179.7,1 179.7,1.8 L179.7,4.1 C179.7,4.9 179.9,5 180.6,5 L182.8,5 L182.8,15.3 C182.8,16.7 183,19.5 183,20.8 L182.9,20.8 C182.4,19.1 181.5,16.9 180.2,14.6 L172.8,1.4 C172.5,0.9 172.4,0.8 171.8,0.8 L165,0.8 C164.2,0.8 164.1,0.9 164.1,1.7 L164.1,4 C164.1,4.8 164.3,4.9 165,4.9 L167.3,4.9 L167.3,25.9 L165,25.9 C164.2,25.9 164.1,26 164.1,26.8 L164.1,29.1 C164.1,29.9 164.3,30 165,30 L174.6,30 C175.4,30 175.5,29.9 175.5,29.1 L175.5,26.8 C175.5,26 175.3,25.9 174.6,25.9 L172.4,25.9 L172.4,13.8 C172.4,11.8 172.2,10.5 172.2,9.1 L172.3,9.1 C173.1,11.5 173.6,12.5 174.9,14.9 L183.1,29.4 C183.4,29.9 183.5,30 184.1,30 L187,30 C187.8,30 187.9,29.9 187.9,29.1 L187.9,5 L190.2,5 C191,5 191.1,4.9 191.1,4.1 L191.1,1.8 C191.1,1 190.9,0.9 190.2,0.9 Z" id="Shape"></path>
                <path d="M215.3,0.9 L196.1,0.9 C195.5,0.9 195.3,1 195.3,1.6 L195.3,9.6 C195.3,10.2 195.4,10.3 196.1,10.3 L198.7,10.3 C199.3,10.3 199.5,10.2 199.5,9.6 L199.5,5.5 L202.7,5.5 L202.7,26 L199.8,26 C199,26 198.9,26.1 198.9,26.9 L198.9,29.2 C198.9,30 199.1,30.1 199.8,30.1 L211.6,30.1 C212.4,30.1 212.5,30 212.5,29.2 L212.5,26.9 C212.5,26.1 212.3,26 211.6,26 L208.7,26 L208.7,5.5 L211.9,5.5 L211.9,9.6 C211.9,10.2 212,10.3 212.7,10.3 L215.3,10.3 C215.9,10.3 216.1,10.2 216.1,9.6 L216.1,1.6 C216,1 215.8,0.9 215.3,0.9 Z" id="Shape"></path>
                <path d="M242.9,26 L240.9,26 L235.5,17 C237.1,16.2 240.6,14.6 240.6,9.1 C240.6,1.1 233.7,0.9 230.3,0.9 L219.9,0.9 C219.1,0.9 219,1 219,1.8 L219,4.1 C219,4.9 219.2,5 219.9,5 L222.2,5 L222.2,26 L219.9,26 C219.1,26 219,26.1 219,26.9 L219,29.2 C219,30 219.2,30.1 219.9,30.1 L230.2,30.1 C231,30.1 231.1,30 231.1,29.2 L231.1,26.9 C231.1,26.1 230.9,26 230.2,26 L228.1,26 L228.1,18 L230.2,18 L236.2,29.5 C236.5,30.1 236.5,30.1 237.2,30.1 L242.9,30.1 C243.7,30.1 243.8,30 243.8,29.2 L243.8,26.9 C243.9,26.1 243.7,26 242.9,26 Z M229.3,13.6 L228.1,13.6 L228.1,5.4 L229.7,5.4 C232,5.4 234.5,5.5 234.5,9.2 C234.6,13.1 232.2,13.6 229.3,13.6 Z" id="Shape"></path>
                <path d="M270.7,26 L269.2,26 L261.6,1.6 C261.4,1 261.3,0.9 260.6,0.9 L256,0.9 C255.2,0.9 255.2,1 255,1.6 L247.2,26 L245.9,26 C245.1,26 245,26.1 245,26.9 L245,29.2 C245,30 245.2,30.1 245.9,30.1 L254.7,30.1 C255.5,30.1 255.6,30 255.6,29.2 L255.6,26.9 C255.6,26.1 255.4,26 254.7,26 L253.2,26 L254.2,22.3 L261.8,22.3 L262.8,26 L261.4,26 C260.6,26 260.5,26.1 260.5,26.9 L260.5,29.2 C260.5,30 260.7,30.1 261.4,30.1 L270.6,30.1 C271.4,30.1 271.5,30 271.5,29.2 L271.5,26.9 C271.6,26.1 271.4,26 270.7,26 Z M254.9,18.4 L256.9,11.1 C257.3,9.4 257.7,6.9 257.9,5.1 L258,5.1 C258.2,6.9 258.5,9.4 259,11.1 L260.8,18.4 L254.9,18.4 Z" id="Shape"></path>
                <path d="M291.5,21.4 L288.2,21.4 C287.6,21.4 287.4,21.6 287.4,22.1 L287.4,26 C286.6,26.2 285.8,26.2 285,26.2 C279.7,26.2 278.7,21.9 278.7,14.6 C278.7,7.3 280.5,4.8 284.6,4.8 C285.4,4.8 286.2,4.9 286.9,5.2 L286.9,8.7 C286.9,9.3 287,9.4 287.7,9.4 L291,9.4 C291.6,9.4 291.8,9.3 291.8,8.7 L291.8,3 C291.8,1.4 287.5,0.2 284.3,0.2 C276.3,0.2 272.4,5.9 272.4,15.7 C272.4,25.9 276.3,30.8 284.4,30.8 C288.2,30.8 292.1,29.6 292.1,28.3 L292.1,22.1 C292.2,21.6 292.1,21.4 291.5,21.4 Z" id="Shape"></path>
                <path d="M316.5,0.9 L297.3,0.9 C296.7,0.9 296.5,1 296.5,1.6 L296.5,9.6 C296.5,10.2 296.6,10.3 297.3,10.3 L299.9,10.3 C300.5,10.3 300.7,10.2 300.7,9.6 L300.7,5.5 L303.9,5.5 L303.9,26 L301,26 C300.2,26 300.1,26.1 300.1,26.9 L300.1,29.2 C300.1,30 300.3,30.1 301,30.1 L312.8,30.1 C313.6,30.1 313.7,30 313.7,29.2 L313.7,26.9 C313.7,26.1 313.5,26 312.8,26 L309.9,26 L309.9,5.5 L313.1,5.5 L313.1,9.6 C313.1,10.2 313.2,10.3 313.9,10.3 L316.5,10.3 C317.1,10.3 317.3,10.2 317.3,9.6 L317.3,1.6 C317.2,1 317,0.9 316.5,0.9 Z" id="Shape"></path>
                <path d="M331,0.2 C324.2,0.2 320,5.2 320,15.5 C320,25.8 324.2,30.8 331,30.8 C337.9,30.8 342,25.8 342,15.5 C342.1,5.2 337.9,0.2 331,0.2 Z M331,26.3 C327.7,26.3 326.3,22.1 326.3,15.5 C326.3,8.9 327.7,4.6 331,4.6 C334.3,4.6 335.7,8.8 335.7,15.5 C335.8,22.2 334.4,26.3 331,26.3 Z" id="Shape"></path>
                <path d="M367.8,26 L365.8,26 L360.4,17 C362,16.2 365.5,14.6 365.5,9.1 C365.5,1.1 358.6,0.9 355.2,0.9 L344.8,0.9 C344,0.9 343.9,1 343.9,1.8 L343.9,4.1 C343.9,4.9 344.1,5 344.8,5 L347.1,5 L347.1,26 L344.8,26 C344,26 343.9,26.1 343.9,26.9 L343.9,29.2 C343.9,30 344.1,30.1 344.8,30.1 L355.1,30.1 C355.9,30.1 356,30 356,29.2 L356,26.9 C356,26.1 355.8,26 355.1,26 L353,26 L353,18 L355.1,18 L361.1,29.5 C361.4,30.1 361.4,30.1 362.1,30.1 L367.8,30.1 C368.6,30.1 368.7,30 368.7,29.2 L368.7,26.9 C368.7,26.1 368.6,26 367.8,26 Z M354.1,13.6 L353,13.6 L353,5.4 L354.6,5.4 C356.9,5.4 359.4,5.5 359.4,9.2 C359.5,13.1 357,13.6 354.1,13.6 Z" id="Shape"></path>
                <path d="M386.5,14.7 C382.6,11.9 377.4,11.3 377.4,8.1 C377.4,5.5 379.5,4.8 381.6,4.8 C383.1,4.8 384.1,5.2 384.6,5.4 L384.6,8.8 C384.6,9.4 384.7,9.5 385.4,9.5 L388.7,9.5 C389.3,9.5 389.5,9.4 389.5,8.8 L389.5,3 C389.5,1.3 384.7,0.2 381.6,0.2 C376.5,0.2 371.8,2.8 371.8,8.9 C371.8,12.4 373.3,14.1 375.7,15.5 C380.2,18.1 384.7,18.5 384.7,22.3 C384.7,24.9 383.2,26.2 380.7,26.2 C378.8,26.2 377.2,25.6 376.5,25.3 L376.5,21.4 C376.5,20.8 376.4,20.7 375.7,20.7 L372.4,20.7 C371.8,20.7 371.6,20.9 371.6,21.4 L371.6,27.8 C371.6,29.7 377.4,30.7 380.7,30.7 C386.3,30.7 390.3,27.1 390.3,21.7 C390.3,18.6 388.8,16.3 386.5,14.7 Z" id="Shape"></path>
            </g>
        </g>
    </g>
</svg>