<?xml version="1.0" encoding="iso-8859-1"?>
<!-- Generator: Adobe Illustrator 16.0.0, SVG Export Plug-In . SVG Version: 6.00 Build 0)  -->
<!DOCTYPE svg PUBLIC "-//W3C//DTD SVG 1.1//EN" "http://www.w3.org/Graphics/SVG/1.1/DTD/svg11.dtd">
<svg version="1.1" id="Capa_1" xmlns="http://www.w3.org/2000/svg" xmlns:xlink="http://www.w3.org/1999/xlink" x="0px" y="0px"
	 width="612px" height="612px" viewBox="0 0 612 612" style="enable-background:new 0 0 612 612;" xml:space="preserve">
<g>
	<g id="Cloud_x5F_Sun_x5F_Fog">
		<g>
			<path d="M230.47,150.165c4.045,4.06,9.643,6.567,15.822,6.567c12.36,0,22.391-10.031,22.391-22.39
				c0-6.18-2.508-11.777-6.568-15.837l-29.854-29.854c-4.045-4.045-9.643-6.553-15.822-6.553c-12.359,0-22.39,10.031-22.39,22.39
				c0,6.18,2.508,11.777,6.568,15.837L230.47,150.165z M335.854,559.757H186.585c-12.359,0-22.39,10.016-22.39,22.391
				c0,12.373,10.031,22.389,22.39,22.389h149.268c12.359,0,22.391-10.016,22.391-22.389
				C358.244,569.772,348.213,559.757,335.854,559.757z M365.707,97.025c12.359,0,22.391-10.031,22.391-22.39V29.854
				c0-12.359-10.031-22.39-22.391-22.39s-22.39,10.031-22.39,22.39v44.781C343.317,86.994,353.348,97.025,365.707,97.025z
				 M485.122,156.732c6.18,0,11.777-2.507,15.822-6.567l29.854-29.854c4.061-4.045,6.568-9.643,6.568-15.822
				c0-12.359-10.031-22.39-22.391-22.39c-6.18,0-11.777,2.508-15.822,6.553L469.3,118.504c-4.061,4.06-6.568,9.658-6.568,15.837
				C462.731,146.701,472.763,156.732,485.122,156.732z M335.854,410.487H186.585c-12.359,0-22.39,10.018-22.39,22.391
				c0,12.375,10.031,22.391,22.39,22.391h149.268c12.359,0,22.391-10.016,22.391-22.391
				C358.244,420.505,348.213,410.487,335.854,410.487z M589.609,231.366h-44.78c-12.359,0-22.39,10.031-22.39,22.39
				s10.03,22.391,22.39,22.391h44.78c12.359,0,22.391-10.031,22.391-22.391S601.969,231.366,589.609,231.366z M335.854,485.122
				H186.585c-12.359,0-22.39,10.016-22.39,22.391s10.031,22.391,22.39,22.391h149.268c12.359,0,22.391-10.016,22.391-22.391
				S348.213,485.122,335.854,485.122z M452.716,345.81c24.479-23.121,39.869-55.736,39.869-92.053
				c0-70.051-56.812-126.878-126.878-126.878c-42.108,0-79.336,20.584-102.398,52.184c-14.822-4.657-30.495-7.403-46.87-7.403
				c-83.307,0-151.239,65.036-156.254,147.088C24.435,337.421,0,374.798,0,417.952c0,61.842,50.109,111.951,111.951,111.951
				c12.359,0,22.39-10.016,22.39-22.391s-10.031-22.391-22.39-22.391c-37.033,0-67.171-30.137-67.171-67.17
				c0-25.062,13.853-47.871,36.153-59.514l22.405-11.717l1.552-25.242c3.598-58.901,52.603-105.04,111.548-105.04
				c34.436,0,66.469,15.613,87.919,42.825l12.897,16.375l20.823,0.672c36.421,1.179,64.946,30.6,64.946,67.006v29.84l27.555,11.492
				c19.524,8.15,32.152,27.078,32.152,48.229c0,28.809-23.435,52.244-52.243,52.244c-12.359,0-22.391,10.016-22.391,22.391
				s10.031,22.391,22.391,22.391c53.587,0,97.023-43.438,97.023-97.025C507.512,394.472,485.077,361.528,452.716,345.81z
				 M436.565,294.671c-17.629-36.347-54.26-61.737-97.04-63.125c-9.852-12.494-21.658-23.331-34.794-32.361
				c15.031-16.793,36.705-27.525,60.976-27.525c45.273,0,82.098,36.824,82.098,82.097
				C447.805,268.713,443.596,282.61,436.565,294.671z"/>
		</g>
	</g>
</g>
<g>
</g>
<g>
</g>
<g>
</g>
<g>
</g>
<g>
</g>
<g>
</g>
<g>
</g>
<g>
</g>
<g>
</g>
<g>
</g>
<g>
</g>
<g>
</g>
<g>
</g>
<g>
</g>
<g>
</g>
</svg>
